<?xml version="1.0" encoding="UTF-8"?>
<svg id="Ebene_2" data-name="Ebene 2" xmlns="http://www.w3.org/2000/svg" viewBox="0 0 483.89 193.63">
  <g id="Ebene_1-2" data-name="Ebene 1">
    <g>
      <path d="M416.63,87.32c3.2,0,6.3-.58,8.62-2.04v-7.75c-2.23,1.26-4.65,2.04-6.98,2.04-4.17,0-6.88-2.33-6.88-6.78v-22.87h13.18v-7.66h-13.18v-12.02h-6.01c-1.74,9.69-3.59,12.79-9.59,13.37v6.3h6.49v24.13c0,9.21,5.72,13.28,14.34,13.28h0,0ZM429.14,118.04c3.59,0,6.11-2.52,6.11-5.91s-2.52-5.82-6.11-5.82-5.91,2.52-5.91,5.82,2.33,5.91,5.91,5.91ZM462.86,161.26c-6.78,0-10.95-5.53-10.95-14.05,0-9.5,6.11-15.31,13.28-15.31,3.78,0,7.07,1.26,9.5,3.78v12.31c0,8.43-5.53,13.28-11.82,13.28h0ZM365.95,87.32c6.3,0,10.86-2.42,13.66-7.07l.58,6.11h8.33V24.23h-9.11v19.67c-3.3-2.04-6.59-2.71-10.56-2.71-11.73,0-21.61,8.43-21.61,24.13,0,14.34,8.14,22,18.71,22h0ZM462.57,187.14c12.7,0,21.32-6.2,21.32-19.77v-42.26h-5.62l-1.36,3c-3.97-3.1-7.75-4.07-12.7-4.07-11.82,0-21.71,8.43-21.71,23.55,0,13.76,7.95,21.42,18.71,21.42,6.01,0,10.56-2.13,13.47-6.49v5.04c0,7.85-4.65,11.73-12.11,11.73-5.72,0-9.79-3.1-11.73-8.14l-8.04,3.88c2.71,7.56,9.4,12.11,19.77,12.11h0ZM367.6,79.57c-6.59,0-10.86-5.43-10.86-14.64,0-10.08,6.01-15.89,13.18-15.89,3.68,0,6.98,1.07,9.5,3.39v13.76c0,8.62-5.62,13.37-11.82,13.37ZM424.58,169.4h9.21v-44.29h-9.21v44.29ZM315.65,87.32c6.2,0,10.95-2.23,13.28-6.3,1.26,4.17,4.17,6.01,8.24,6.01,1.65,0,3.2-.29,4.46-.77l.77-6.3h-.58c-3,0-4.36-.87-4.36-4.85v-18.31c0-9.5-5.23-15.6-16.96-15.6-7.85,0-13.86,3.1-18.42,9.21l5.62,5.43c3.2-4.36,7.66-6.78,12.11-6.78,5.33,0,8.53,2.91,8.53,8.33v1.45l-6.4.68c-14.34,1.55-20.55,6.4-20.55,14.93s6.11,12.89,14.25,12.89h0ZM380,169.4h35.18v-7.85h-23.26l22.97-30.24v-6.2h-35.18v7.85h23.26l-22.97,30.24v6.2h0ZM317.69,79.86c-4.26,0-7.07-2.33-7.07-5.82,0-4.36,3.49-6.78,13.57-7.95l4.17-.48v3.78c0,6.69-4.94,10.47-10.66,10.47h0ZM286.67,87.32c3.2,0,6.3-.58,8.62-2.04v-7.75c-2.23,1.26-4.65,2.04-6.98,2.04-4.17,0-6.78-2.33-6.78-6.78v-22.87h13.08v-7.66h-13.08v-12.02h-6.11c-1.74,9.69-3.59,12.79-9.5,13.37v6.3h6.4v24.13c0,9.21,5.82,13.28,14.34,13.28h0,0ZM352.48,162.62c-3.88,0-7.66-1.36-10.27-3.78v-13.47c0-8.72,5.33-13.47,11.63-13.47,6.88,0,11.15,5.43,11.15,14.64,0,10.18-5.43,16.09-12.5,16.09h0,0ZM317.49,118.04c3.59,0,6.11-2.52,6.11-5.91s-2.52-5.82-6.11-5.82-5.91,2.52-5.91,5.82,2.33,5.91,5.91,5.91ZM333,186.07h9.21v-18.8c3.49,2.42,6.98,3.1,11.15,3.1,11.53,0,21.03-7.75,21.03-24.13,0-14.44-8.04-22.19-18.9-22.19-6.3,0-10.76,2.42-13.57,6.98l-.58-5.91h-8.33v60.96h0ZM238.31,87.32c13.76,0,23.45-7.17,23.45-19,0-13.08-11.24-16.09-21.42-18.31-8.04-1.75-14.64-3.68-14.64-9.98,0-5.53,4.94-8.82,11.53-8.82,7.17,0,11.63,3.88,13.57,9.89l8.72-3.49c-2.62-8.53-9.69-14.34-22.1-14.34s-21.32,6.78-21.32,17.64c0,12.6,11.05,15.51,21.03,17.93,8.33,2.04,15.02,3.68,15.02,10.27s-5.82,10.08-13.86,10.08-13.76-4.26-16.18-11.34l-8.72,3.59c3.39,10.27,12.5,15.89,24.91,15.89h0ZM312.94,169.4h9.21v-44.29h-9.21v44.29ZM272.33,142.27c1.26-6.3,5.53-10.66,11.82-10.66s9.79,4.07,10.18,10.66h-22ZM284.73,170.37c8.33,0,14.73-2.33,18.02-6.2l-4.75-6.49c-2.81,2.81-7.27,4.94-12.5,4.94-7.95,0-13.18-4.65-13.66-13.28h31.69v-4.36c0-12.89-7.56-20.93-19.38-20.93-12.4,0-21.32,9.3-21.32,23.55,0,15.02,9.11,22.78,21.9,22.78h0ZM216.8,169.4h40.8v-8.62h-30.91v-53.69h-9.89v62.32h0ZM66.58,136.07h2.23c9.5,0,15.8-5.53,17.25-13.08,9.89,0,16.67-6.49,16.67-15.8,0-4.07-1.45-7.66-3.2-11.05.1-.68.58-1.75,1.26-2.42.68-.68,1.94-1.16,3.2-1.16v-6.59c-3.78.1-6.3,1.75-7.46,4.65h-.1c-.77-1.26-1.65-3.1-2.23-4.46,1.36-3.59,5.23-5.91,9.79-6.01v-6.59c-5.23.1-9.69,2.71-11.34,6.4h-.1c-.19-.77-.29-1.55-.29-2.42,0-6.2,4.26-9.79,11.73-9.79v-7.17c-11.73,0-19,6.69-19,17.35,0,6.98,3.1,13.08,5.82,17.93,2.23,3.97,4.26,7.66,4.26,11.34,0,3.97-2.52,8.62-9.01,8.62-1.16-6.01-5.72-10.95-12.11-12.31v-21.51h-7.37v27.91h2.23c6.2,0,9.98,4.26,9.98,9.5s-3.78,9.5-9.98,9.5h-2.23v7.17h0ZM44.68,193.63h24.62l14.54-32.08c-15.22-11.05-27.14-19.87-27.14-30.24,0-6.11,4.17-8.33,8.14-8.33h1.75v-7.17h-1.75c-.87,0-1.65.1-2.42.19-7.07-5.33-11.15-9.5-14.93-14.15-1.75-2.13-3.88-5.14-5.33-7.75l7.66-6.98c8.43-7.75,15.89-14.54,23.55-14.54h2.04v-7.17h-2.04c-10.56,0-19.48,8.14-28.98,16.86-1.65,1.55-3.49,3.2-5.53,4.94-1.26-3.59-1.94-7.17-1.94-10.86,0-.97,0-1.75.1-2.42l30.33-15.89c12.31-6.4,14.15-15.41,14.15-21.8,0-7.07-1.94-12.7-5.53-18.22l-44.1,6.59.77,17.64h11.82c2.81,0,4.26,1.26,4.26,3.49s-1.45,3.49-4.26,3.49h-8.53l.39,7.17h7.66c7.75,0,12.5-4.17,12.5-10.66s-4.55-10.66-12.5-10.66h-4.17l-.1-4.36,31.69-4.75c.97,1.65,2.33,5.43,2.33,10.27s-.97,10.95-9.69,15.51l-31.21,16.28c-12.89-8.14-22.58-21.61-24.62-26.65.58-1.16,1.84-1.94,3.3-1.94,3.68,0,5.62,4.17,5.72,8.53h6.88c0-7.85-4.26-15.6-12.6-15.6-3.1,0-5.91,1.07-8.24,3.3-1.36,1.26-2.72,3.29-3.3,5.23,5.04,12.31,17.06,25.59,29.27,33.43-.1.77-.1,1.36-.1,2.04,0,5.23,1.16,10.56,3.49,15.89-8.72,6.3-16.86,7.27-20.55,7.37-.29-.48-.58-1.26-.58-2.33,0-3.2,2.71-4.26,5.72-4.26,1.16,0,2.23,0,4.85.68v-6.78c-1.26-.39-3.78-.77-6.2-.77-6.3,0-12.02,3.88-12.02,11.15,0,3.1.97,6.3,3.1,9.3,1.55.1,2.91.1,3.88.1,4.55,0,14.73-.77,25.29-7.95,1.55,2.62,3.59,5.43,5.62,7.95.87,1.07,1.84,2.23,3.2,3.39v.1h-8.33c-11.44,0-17.93,5.72-17.93,14.64,0,9.4,7.07,15.7,15.6,22.58l-6.59,14.83h-13.08c-.1-.48-.1-.68-.1-1.07,0-2.71,2.23-4.07,4.65-4.07,2.04,0,3.59.29,5.82,1.45v-6.98c-2.04-.97-4.26-1.26-6.11-1.26-7.56,0-12.02,5.14-12.02,11.63,0,2.04.19,4.17,1.65,7.46h24.62l10.76-24.33c-9.79-7.17-17.44-13.08-17.44-19.87,0-5.72,4.46-7.85,10.18-7.85h15.8c.77.68,1.36,1.16,2.23,1.65v.1c-3.59,2.52-5.72,6.69-5.72,11.73,0,13.86,14.93,25.29,25.29,33.14l-10.27,22.48h-13.18c-.1-.48-.1-.68-.1-1.07,0-2.71,2.23-4.07,4.65-4.07,2.04,0,3.59.29,5.82,1.45v-6.98c-2.04-.97-4.26-1.26-6.11-1.26-7.56,0-12.02,5.14-12.02,11.63,0,2.04.19,4.17,1.65,7.46h0Z"/>
      <rect x="159.42" width="8.92" height="169.4"/>
      <rect x="126.28" y="24.23" width="8.92" height="169.4"/>
    </g>
  </g>
</svg>